<svg width="48" height="48" viewBox="0 0 48 48" fill="none" xmlns="http://www.w3.org/2000/svg">
<circle cx="24" cy="24" r="24" fill="white"/>
<path fill-rule="evenodd" clip-rule="evenodd" d="M40.0095 15.1118C42.0972 18.9908 40.7771 23.902 37.0609 26.0812C34.2712 27.7171 30.9243 27.3484 28.5457 25.4217L22.3894 29.0319C22.7283 32.1546 21.2889 35.3302 18.4991 36.9661C14.783 39.1453 10.0781 37.7673 7.99046 33.8882C6.39093 30.9162 6.7919 27.3382 8.73829 24.8473C11.3815 21.4648 16.0271 18.7419 19.4638 16.7276L19.7028 16.5875C19.9764 16.4271 20.2578 16.2609 20.5462 16.0906C23.9023 14.1089 28.1926 11.5756 31.9196 11.1255C35.0638 10.5374 38.3568 12.0409 40.0095 15.1118ZM38.5714 18.5349C38.5714 21.6559 36.125 24.186 33.1071 24.186C30.0893 24.186 27.6429 21.6559 27.6429 18.5349C27.6429 15.4138 30.0893 12.8837 33.1071 12.8837C36.125 12.8837 38.5714 15.4138 38.5714 18.5349ZM20.3571 29.8372C20.3571 32.9583 17.9107 35.4884 14.8929 35.4884C11.875 35.4884 9.42858 32.9583 9.42858 29.8372C9.42858 26.7162 11.875 24.186 14.8929 24.186C17.9107 24.186 20.3571 26.7162 20.3571 29.8372ZM13.5991 26.8931C13.8539 26.7409 14.1798 26.8312 14.3269 27.0948L14.8566 28.0436C15.0037 28.3072 15.3296 28.3975 15.5844 28.2453L16.5019 27.6975C16.7567 27.5453 17.0826 27.6356 17.2297 27.8992L17.6076 28.5761C17.7548 28.8397 17.6674 29.1767 17.4126 29.3288L16.4951 29.8767C16.2403 30.0288 16.153 30.3658 16.3001 30.6294L16.8298 31.5782C16.977 31.8418 16.8896 32.1788 16.6348 32.3309L15.9802 32.7218C15.7254 32.8739 15.3996 32.7836 15.2524 32.5201L14.7227 31.5712C14.5756 31.3077 14.2497 31.2174 13.9949 31.3695L13.0774 31.9174C12.8226 32.0695 12.4967 31.9792 12.3496 31.7157L11.9717 31.0387C11.8246 30.7752 11.9119 30.4382 12.1667 30.286L13.0842 29.7382C13.339 29.586 13.4263 29.249 13.2792 28.9855L12.7495 28.0366C12.6024 27.7731 12.6897 27.4361 12.9445 27.2839L13.5991 26.8931Z" fill="#A03794"/>
<path fill-rule="evenodd" clip-rule="evenodd" d="M40.0095 15.1118C42.0972 18.9908 40.7771 23.902 37.0609 26.0812C34.2712 27.7171 30.9243 27.3484 28.5457 25.4217L22.3894 29.0319C22.7283 32.1546 21.2889 35.3302 18.4991 36.9661C14.783 39.1453 10.0781 37.7673 7.99046 33.8882C6.39093 30.9162 6.7919 27.3382 8.73829 24.8473C11.3815 21.4648 16.0271 18.7419 19.4638 16.7276L19.7028 16.5875C19.9764 16.4271 20.2578 16.2609 20.5462 16.0906C23.9023 14.1089 28.1926 11.5756 31.9196 11.1255C35.0638 10.5374 38.3568 12.0409 40.0095 15.1118ZM38.5714 18.5349C38.5714 21.6559 36.125 24.186 33.1071 24.186C30.0893 24.186 27.6429 21.6559 27.6429 18.5349C27.6429 15.4138 30.0893 12.8837 33.1071 12.8837C36.125 12.8837 38.5714 15.4138 38.5714 18.5349ZM20.3571 29.8372C20.3571 32.9583 17.9107 35.4884 14.8929 35.4884C11.875 35.4884 9.42858 32.9583 9.42858 29.8372C9.42858 26.7162 11.875 24.186 14.8929 24.186C17.9107 24.186 20.3571 26.7162 20.3571 29.8372ZM13.5991 26.8931C13.8539 26.7409 14.1798 26.8312 14.3269 27.0948L14.8566 28.0436C15.0037 28.3072 15.3296 28.3975 15.5844 28.2453L16.5019 27.6975C16.7567 27.5453 17.0826 27.6356 17.2297 27.8992L17.6076 28.5761C17.7548 28.8397 17.6674 29.1767 17.4126 29.3288L16.4951 29.8767C16.2403 30.0288 16.153 30.3658 16.3001 30.6294L16.8298 31.5782C16.977 31.8418 16.8896 32.1788 16.6348 32.3309L15.9802 32.7218C15.7254 32.8739 15.3996 32.7836 15.2524 32.5201L14.7227 31.5712C14.5756 31.3077 14.2497 31.2174 13.9949 31.3695L13.0774 31.9174C12.8226 32.0695 12.4967 31.9792 12.3496 31.7157L11.9717 31.0387C11.8246 30.7752 11.9119 30.4382 12.1667 30.286L13.0842 29.7382C13.339 29.586 13.4263 29.249 13.2792 28.9855L12.7495 28.0366C12.6024 27.7731 12.6897 27.4361 12.9445 27.2839L13.5991 26.8931Z" fill="url(#paint0_radial)"/>
<path fill-rule="evenodd" clip-rule="evenodd" d="M40.0095 15.1118C42.0972 18.9908 40.7771 23.902 37.0609 26.0812C34.2712 27.7171 30.9243 27.3484 28.5457 25.4217L22.3894 29.0319C22.7283 32.1546 21.2889 35.3302 18.4991 36.9661C14.783 39.1453 10.0781 37.7673 7.99046 33.8882C6.39093 30.9162 6.7919 27.3382 8.73829 24.8473C11.3815 21.4648 16.0271 18.7419 19.4638 16.7276L19.7028 16.5875C19.9764 16.4271 20.2578 16.2609 20.5462 16.0906C23.9023 14.1089 28.1926 11.5756 31.9196 11.1255C35.0638 10.5374 38.3568 12.0409 40.0095 15.1118ZM38.5714 18.5349C38.5714 21.6559 36.125 24.186 33.1071 24.186C30.0893 24.186 27.6429 21.6559 27.6429 18.5349C27.6429 15.4138 30.0893 12.8837 33.1071 12.8837C36.125 12.8837 38.5714 15.4138 38.5714 18.5349ZM20.3571 29.8372C20.3571 32.9583 17.9107 35.4884 14.8929 35.4884C11.875 35.4884 9.42858 32.9583 9.42858 29.8372C9.42858 26.7162 11.875 24.186 14.8929 24.186C17.9107 24.186 20.3571 26.7162 20.3571 29.8372ZM13.5991 26.8931C13.8539 26.7409 14.1798 26.8312 14.3269 27.0948L14.8566 28.0436C15.0037 28.3072 15.3296 28.3975 15.5844 28.2453L16.5019 27.6975C16.7567 27.5453 17.0826 27.6356 17.2297 27.8992L17.6076 28.5761C17.7548 28.8397 17.6674 29.1767 17.4126 29.3288L16.4951 29.8767C16.2403 30.0288 16.153 30.3658 16.3001 30.6294L16.8298 31.5782C16.977 31.8418 16.8896 32.1788 16.6348 32.3309L15.9802 32.7218C15.7254 32.8739 15.3996 32.7836 15.2524 32.5201L14.7227 31.5712C14.5756 31.3077 14.2497 31.2174 13.9949 31.3695L13.0774 31.9174C12.8226 32.0695 12.4967 31.9792 12.3496 31.7157L11.9717 31.0387C11.8246 30.7752 11.9119 30.4382 12.1667 30.286L13.0842 29.7382C13.339 29.586 13.4263 29.249 13.2792 28.9855L12.7495 28.0366C12.6024 27.7731 12.6897 27.4361 12.9445 27.2839L13.5991 26.8931Z" fill="url(#paint1_radial)"/>
<path fill-rule="evenodd" clip-rule="evenodd" d="M40.0095 15.1118C42.0972 18.9908 40.7771 23.902 37.0609 26.0812C34.2712 27.7171 30.9243 27.3484 28.5457 25.4217L22.3894 29.0319C22.7283 32.1546 21.2889 35.3302 18.4991 36.9661C14.783 39.1453 10.0781 37.7673 7.99046 33.8882C6.39093 30.9162 6.7919 27.3382 8.73829 24.8473C11.3815 21.4648 16.0271 18.7419 19.4638 16.7276L19.7028 16.5875C19.9764 16.4271 20.2578 16.2609 20.5462 16.0906C23.9023 14.1089 28.1926 11.5756 31.9196 11.1255C35.0638 10.5374 38.3568 12.0409 40.0095 15.1118ZM38.5714 18.5349C38.5714 21.6559 36.125 24.186 33.1071 24.186C30.0893 24.186 27.6429 21.6559 27.6429 18.5349C27.6429 15.4138 30.0893 12.8837 33.1071 12.8837C36.125 12.8837 38.5714 15.4138 38.5714 18.5349ZM20.3571 29.8372C20.3571 32.9583 17.9107 35.4884 14.8929 35.4884C11.875 35.4884 9.42858 32.9583 9.42858 29.8372C9.42858 26.7162 11.875 24.186 14.8929 24.186C17.9107 24.186 20.3571 26.7162 20.3571 29.8372ZM13.5991 26.8931C13.8539 26.7409 14.1798 26.8312 14.3269 27.0948L14.8566 28.0436C15.0037 28.3072 15.3296 28.3975 15.5844 28.2453L16.5019 27.6975C16.7567 27.5453 17.0826 27.6356 17.2297 27.8992L17.6076 28.5761C17.7548 28.8397 17.6674 29.1767 17.4126 29.3288L16.4951 29.8767C16.2403 30.0288 16.153 30.3658 16.3001 30.6294L16.8298 31.5782C16.977 31.8418 16.8896 32.1788 16.6348 32.3309L15.9802 32.7218C15.7254 32.8739 15.3996 32.7836 15.2524 32.5201L14.7227 31.5712C14.5756 31.3077 14.2497 31.2174 13.9949 31.3695L13.0774 31.9174C12.8226 32.0695 12.4967 31.9792 12.3496 31.7157L11.9717 31.0387C11.8246 30.7752 11.9119 30.4382 12.1667 30.286L13.0842 29.7382C13.339 29.586 13.4263 29.249 13.2792 28.9855L12.7495 28.0366C12.6024 27.7731 12.6897 27.4361 12.9445 27.2839L13.5991 26.8931Z" fill="url(#paint2_linear)"/>
<path fill-rule="evenodd" clip-rule="evenodd" d="M24 44.5714C35.3613 44.5714 44.5714 35.3613 44.5714 24C44.5714 12.6387 35.3613 3.42857 24 3.42857C12.6387 3.42857 3.42857 12.6387 3.42857 24C3.42857 35.3613 12.6387 44.5714 24 44.5714ZM24 48C37.2548 48 48 37.2548 48 24C48 10.7452 37.2548 0 24 0C10.7452 0 0 10.7452 0 24C0 37.2548 10.7452 48 24 48Z" fill="#A03794"/>
<path fill-rule="evenodd" clip-rule="evenodd" d="M24 44.5714C35.3613 44.5714 44.5714 35.3613 44.5714 24C44.5714 12.6387 35.3613 3.42857 24 3.42857C12.6387 3.42857 3.42857 12.6387 3.42857 24C3.42857 35.3613 12.6387 44.5714 24 44.5714ZM24 48C37.2548 48 48 37.2548 48 24C48 10.7452 37.2548 0 24 0C10.7452 0 0 10.7452 0 24C0 37.2548 10.7452 48 24 48Z" fill="url(#paint3_radial)"/>
<path fill-rule="evenodd" clip-rule="evenodd" d="M24 44.5714C35.3613 44.5714 44.5714 35.3613 44.5714 24C44.5714 12.6387 35.3613 3.42857 24 3.42857C12.6387 3.42857 3.42857 12.6387 3.42857 24C3.42857 35.3613 12.6387 44.5714 24 44.5714ZM24 48C37.2548 48 48 37.2548 48 24C48 10.7452 37.2548 0 24 0C10.7452 0 0 10.7452 0 24C0 37.2548 10.7452 48 24 48Z" fill="url(#paint4_radial)"/>
<path fill-rule="evenodd" clip-rule="evenodd" d="M24 44.5714C35.3613 44.5714 44.5714 35.3613 44.5714 24C44.5714 12.6387 35.3613 3.42857 24 3.42857C12.6387 3.42857 3.42857 12.6387 3.42857 24C3.42857 35.3613 12.6387 44.5714 24 44.5714ZM24 48C37.2548 48 48 37.2548 48 24C48 10.7452 37.2548 0 24 0C10.7452 0 0 10.7452 0 24C0 37.2548 10.7452 48 24 48Z" fill="url(#paint5_linear)"/>
<defs>
<radialGradient id="paint0_radial" cx="0" cy="0" r="1" gradientUnits="userSpaceOnUse" gradientTransform="translate(3.95349 2.9987) rotate(56.9568) scale(32.3876 31.9644)">
<stop stop-color="#565ECD"/>
<stop offset="1" stop-color="#0314FF" stop-opacity="0"/>
</radialGradient>
<radialGradient id="paint1_radial" cx="0" cy="0" r="1" gradientUnits="userSpaceOnUse" gradientTransform="translate(3.95349 47.9183) rotate(-34.585) scale(24.3495 24.6545)">
<stop stop-color="#F4BF6F"/>
<stop offset="1" stop-color="#F5C571" stop-opacity="0"/>
</radialGradient>
<linearGradient id="paint2_linear" x1="45.4785" y1="41.0076" x2="11.9762" y2="21.7588" gradientUnits="userSpaceOnUse">
<stop stop-color="#D9405F"/>
<stop offset="1" stop-color="#D93F61" stop-opacity="0"/>
</linearGradient>
<radialGradient id="paint3_radial" cx="0" cy="0" r="1" gradientUnits="userSpaceOnUse" gradientTransform="translate(-4.30095 -14.2245) rotate(62.681) scale(54.3244 47.8289)">
<stop stop-color="#565ECD"/>
<stop offset="1" stop-color="#0314FF" stop-opacity="0"/>
</radialGradient>
<radialGradient id="paint4_radial" cx="0" cy="0" r="1" gradientUnits="userSpaceOnUse" gradientTransform="translate(-4.30095 65.6326) rotate(-40.9651) scale(37.4794 40.2006)">
<stop stop-color="#F4BF6F"/>
<stop offset="1" stop-color="#F5C571" stop-opacity="0"/>
</radialGradient>
<linearGradient id="paint5_linear" x1="54.3226" y1="53.3469" x2="2.25178" y2="29.5889" gradientUnits="userSpaceOnUse">
<stop stop-color="#D9405F"/>
<stop offset="1" stop-color="#D93F61" stop-opacity="0"/>
</linearGradient>
</defs>
</svg>
