<svg width="48" height="48" viewBox="0 0 48 48" fill="none" xmlns="http://www.w3.org/2000/svg">
<g clip-path="url(#clip0)">
<rect x="3" y="3" width="42" height="42" fill="white"/>
<path fill-rule="evenodd" clip-rule="evenodd" d="M-0.000244141 3.62396e-05L-5.72205e-05 48L48.0002 48V0L-0.000244141 3.62396e-05ZM5.30136 5.30134C3.73335 6.86935 3.66334 9.27943 3.52332 14.0996C3.42663 17.4281 3.34888 21.0286 3.34888 24C3.34888 26.9714 3.42663 30.5719 3.52332 33.9004C3.66334 38.7206 3.73335 41.1307 5.30136 42.6987C6.86937 44.2667 9.27946 44.3367 14.0996 44.4767C17.4281 44.5734 21.0286 44.6512 24 44.6512C26.9714 44.6512 30.5719 44.5734 33.9005 44.4767C38.7206 44.3367 41.1307 44.2667 42.6987 42.6987C44.2667 41.1307 44.3367 38.7206 44.4767 33.9004C44.5734 30.5719 44.6512 26.9714 44.6512 24C44.6512 21.0286 44.5734 17.4281 44.4767 14.0996C44.3367 9.27943 44.2667 6.86935 42.6987 5.30134C41.1307 3.73333 38.7206 3.66332 33.9005 3.5233C30.5719 3.42661 26.9714 3.34885 24 3.34885C21.0287 3.34885 17.4282 3.42661 14.0996 3.5233C9.27946 3.66332 6.86937 3.73333 5.30136 5.30134ZM40.771 14.7695C42.958 18.6987 41.5751 23.6734 37.6822 25.8807C34.7598 27.5378 31.2536 27.1642 28.7619 25.2127L22.3128 28.8695C22.6678 32.0326 21.16 35.2492 18.2376 36.9063C14.3447 39.1136 9.41602 37.7178 7.22906 33.7886C5.55345 30.7782 5.97349 27.1539 8.01246 24.6309C10.7813 21.2047 15.6479 18.4466 19.2481 16.4063L19.4985 16.2643C19.7851 16.1018 20.0799 15.9335 20.3819 15.7611C23.8977 13.7537 28.3921 11.1877 32.2963 10.7318C35.59 10.1361 39.0397 11.659 40.771 14.7695ZM39.2645 18.2369C39.2645 21.3983 36.7017 23.9611 33.5403 23.9611C30.379 23.9611 27.8162 21.3983 27.8162 18.2369C27.8162 15.0755 30.379 12.5127 33.5403 12.5127C36.7017 12.5127 39.2645 15.0755 39.2645 18.2369ZM20.1839 29.6853C20.1839 32.8466 17.6211 35.4094 14.4598 35.4094C11.2984 35.4094 8.73558 32.8466 8.73558 29.6853C8.73558 26.5239 11.2984 23.9611 14.4598 23.9611C17.6211 23.9611 20.1839 26.5239 20.1839 29.6853ZM13.1045 26.7031C13.3714 26.549 13.7128 26.6404 13.8669 26.9074L14.4218 27.8685C14.5759 28.1354 14.9173 28.2269 15.1842 28.0728L16.1453 27.5179C16.4123 27.3638 16.7536 27.4552 16.9077 27.7222L17.3036 28.4079C17.4578 28.6748 17.3663 29.0162 17.0993 29.1703L16.1382 29.7252C15.8713 29.8793 15.7798 30.2207 15.9339 30.4876L16.4888 31.4488C16.643 31.7157 16.5515 32.0571 16.2846 32.2112L15.5989 32.6071C15.3319 32.7612 14.9905 32.6697 14.8364 32.4028L14.2815 31.4417C14.1274 31.1747 13.786 31.0833 13.5191 31.2374L12.558 31.7923C12.291 31.9464 11.9497 31.8549 11.7955 31.588L11.3997 30.9023C11.2455 30.6353 11.337 30.294 11.6039 30.1399L12.5651 29.585C12.832 29.4308 12.9235 29.0895 12.7694 28.8225L12.2145 27.8614C12.0603 27.5945 12.1518 27.2531 12.4188 27.099L13.1045 26.7031Z" fill="#A03794"/>
<path fill-rule="evenodd" clip-rule="evenodd" d="M-0.000244141 3.62396e-05L-5.72205e-05 48L48.0002 48V0L-0.000244141 3.62396e-05ZM5.30136 5.30134C3.73335 6.86935 3.66334 9.27943 3.52332 14.0996C3.42663 17.4281 3.34888 21.0286 3.34888 24C3.34888 26.9714 3.42663 30.5719 3.52332 33.9004C3.66334 38.7206 3.73335 41.1307 5.30136 42.6987C6.86937 44.2667 9.27946 44.3367 14.0996 44.4767C17.4281 44.5734 21.0286 44.6512 24 44.6512C26.9714 44.6512 30.5719 44.5734 33.9005 44.4767C38.7206 44.3367 41.1307 44.2667 42.6987 42.6987C44.2667 41.1307 44.3367 38.7206 44.4767 33.9004C44.5734 30.5719 44.6512 26.9714 44.6512 24C44.6512 21.0286 44.5734 17.4281 44.4767 14.0996C44.3367 9.27943 44.2667 6.86935 42.6987 5.30134C41.1307 3.73333 38.7206 3.66332 33.9005 3.5233C30.5719 3.42661 26.9714 3.34885 24 3.34885C21.0287 3.34885 17.4282 3.42661 14.0996 3.5233C9.27946 3.66332 6.86937 3.73333 5.30136 5.30134ZM40.771 14.7695C42.958 18.6987 41.5751 23.6734 37.6822 25.8807C34.7598 27.5378 31.2536 27.1642 28.7619 25.2127L22.3128 28.8695C22.6678 32.0326 21.16 35.2492 18.2376 36.9063C14.3447 39.1136 9.41602 37.7178 7.22906 33.7886C5.55345 30.7782 5.97349 27.1539 8.01246 24.6309C10.7813 21.2047 15.6479 18.4466 19.2481 16.4063L19.4985 16.2643C19.7851 16.1018 20.0799 15.9335 20.3819 15.7611C23.8977 13.7537 28.3921 11.1877 32.2963 10.7318C35.59 10.1361 39.0397 11.659 40.771 14.7695ZM39.2645 18.2369C39.2645 21.3983 36.7017 23.9611 33.5403 23.9611C30.379 23.9611 27.8162 21.3983 27.8162 18.2369C27.8162 15.0755 30.379 12.5127 33.5403 12.5127C36.7017 12.5127 39.2645 15.0755 39.2645 18.2369ZM20.1839 29.6853C20.1839 32.8466 17.6211 35.4094 14.4598 35.4094C11.2984 35.4094 8.73558 32.8466 8.73558 29.6853C8.73558 26.5239 11.2984 23.9611 14.4598 23.9611C17.6211 23.9611 20.1839 26.5239 20.1839 29.6853ZM13.1045 26.7031C13.3714 26.549 13.7128 26.6404 13.8669 26.9074L14.4218 27.8685C14.5759 28.1354 14.9173 28.2269 15.1842 28.0728L16.1453 27.5179C16.4123 27.3638 16.7536 27.4552 16.9077 27.7222L17.3036 28.4079C17.4578 28.6748 17.3663 29.0162 17.0993 29.1703L16.1382 29.7252C15.8713 29.8793 15.7798 30.2207 15.9339 30.4876L16.4888 31.4488C16.643 31.7157 16.5515 32.0571 16.2846 32.2112L15.5989 32.6071C15.3319 32.7612 14.9905 32.6697 14.8364 32.4028L14.2815 31.4417C14.1274 31.1747 13.786 31.0833 13.5191 31.2374L12.558 31.7923C12.291 31.9464 11.9497 31.8549 11.7955 31.588L11.3997 30.9023C11.2455 30.6353 11.337 30.294 11.6039 30.1399L12.5651 29.585C12.832 29.4308 12.9235 29.0895 12.7694 28.8225L12.2145 27.8614C12.0603 27.5945 12.1518 27.2531 12.4188 27.099L13.1045 26.7031Z" fill="url(#paint0_radial)"/>
<path fill-rule="evenodd" clip-rule="evenodd" d="M-0.000244141 3.62396e-05L-5.72205e-05 48L48.0002 48V0L-0.000244141 3.62396e-05ZM5.30136 5.30134C3.73335 6.86935 3.66334 9.27943 3.52332 14.0996C3.42663 17.4281 3.34888 21.0286 3.34888 24C3.34888 26.9714 3.42663 30.5719 3.52332 33.9004C3.66334 38.7206 3.73335 41.1307 5.30136 42.6987C6.86937 44.2667 9.27946 44.3367 14.0996 44.4767C17.4281 44.5734 21.0286 44.6512 24 44.6512C26.9714 44.6512 30.5719 44.5734 33.9005 44.4767C38.7206 44.3367 41.1307 44.2667 42.6987 42.6987C44.2667 41.1307 44.3367 38.7206 44.4767 33.9004C44.5734 30.5719 44.6512 26.9714 44.6512 24C44.6512 21.0286 44.5734 17.4281 44.4767 14.0996C44.3367 9.27943 44.2667 6.86935 42.6987 5.30134C41.1307 3.73333 38.7206 3.66332 33.9005 3.5233C30.5719 3.42661 26.9714 3.34885 24 3.34885C21.0287 3.34885 17.4282 3.42661 14.0996 3.5233C9.27946 3.66332 6.86937 3.73333 5.30136 5.30134ZM40.771 14.7695C42.958 18.6987 41.5751 23.6734 37.6822 25.8807C34.7598 27.5378 31.2536 27.1642 28.7619 25.2127L22.3128 28.8695C22.6678 32.0326 21.16 35.2492 18.2376 36.9063C14.3447 39.1136 9.41602 37.7178 7.22906 33.7886C5.55345 30.7782 5.97349 27.1539 8.01246 24.6309C10.7813 21.2047 15.6479 18.4466 19.2481 16.4063L19.4985 16.2643C19.7851 16.1018 20.0799 15.9335 20.3819 15.7611C23.8977 13.7537 28.3921 11.1877 32.2963 10.7318C35.59 10.1361 39.0397 11.659 40.771 14.7695ZM39.2645 18.2369C39.2645 21.3983 36.7017 23.9611 33.5403 23.9611C30.379 23.9611 27.8162 21.3983 27.8162 18.2369C27.8162 15.0755 30.379 12.5127 33.5403 12.5127C36.7017 12.5127 39.2645 15.0755 39.2645 18.2369ZM20.1839 29.6853C20.1839 32.8466 17.6211 35.4094 14.4598 35.4094C11.2984 35.4094 8.73558 32.8466 8.73558 29.6853C8.73558 26.5239 11.2984 23.9611 14.4598 23.9611C17.6211 23.9611 20.1839 26.5239 20.1839 29.6853ZM13.1045 26.7031C13.3714 26.549 13.7128 26.6404 13.8669 26.9074L14.4218 27.8685C14.5759 28.1354 14.9173 28.2269 15.1842 28.0728L16.1453 27.5179C16.4123 27.3638 16.7536 27.4552 16.9077 27.7222L17.3036 28.4079C17.4578 28.6748 17.3663 29.0162 17.0993 29.1703L16.1382 29.7252C15.8713 29.8793 15.7798 30.2207 15.9339 30.4876L16.4888 31.4488C16.643 31.7157 16.5515 32.0571 16.2846 32.2112L15.5989 32.6071C15.3319 32.7612 14.9905 32.6697 14.8364 32.4028L14.2815 31.4417C14.1274 31.1747 13.786 31.0833 13.5191 31.2374L12.558 31.7923C12.291 31.9464 11.9497 31.8549 11.7955 31.588L11.3997 30.9023C11.2455 30.6353 11.337 30.294 11.6039 30.1399L12.5651 29.585C12.832 29.4308 12.9235 29.0895 12.7694 28.8225L12.2145 27.8614C12.0603 27.5945 12.1518 27.2531 12.4188 27.099L13.1045 26.7031Z" fill="url(#paint1_radial)"/>
<path fill-rule="evenodd" clip-rule="evenodd" d="M-0.000244141 3.62396e-05L-5.72205e-05 48L48.0002 48V0L-0.000244141 3.62396e-05ZM5.30136 5.30134C3.73335 6.86935 3.66334 9.27943 3.52332 14.0996C3.42663 17.4281 3.34888 21.0286 3.34888 24C3.34888 26.9714 3.42663 30.5719 3.52332 33.9004C3.66334 38.7206 3.73335 41.1307 5.30136 42.6987C6.86937 44.2667 9.27946 44.3367 14.0996 44.4767C17.4281 44.5734 21.0286 44.6512 24 44.6512C26.9714 44.6512 30.5719 44.5734 33.9005 44.4767C38.7206 44.3367 41.1307 44.2667 42.6987 42.6987C44.2667 41.1307 44.3367 38.7206 44.4767 33.9004C44.5734 30.5719 44.6512 26.9714 44.6512 24C44.6512 21.0286 44.5734 17.4281 44.4767 14.0996C44.3367 9.27943 44.2667 6.86935 42.6987 5.30134C41.1307 3.73333 38.7206 3.66332 33.9005 3.5233C30.5719 3.42661 26.9714 3.34885 24 3.34885C21.0287 3.34885 17.4282 3.42661 14.0996 3.5233C9.27946 3.66332 6.86937 3.73333 5.30136 5.30134ZM40.771 14.7695C42.958 18.6987 41.5751 23.6734 37.6822 25.8807C34.7598 27.5378 31.2536 27.1642 28.7619 25.2127L22.3128 28.8695C22.6678 32.0326 21.16 35.2492 18.2376 36.9063C14.3447 39.1136 9.41602 37.7178 7.22906 33.7886C5.55345 30.7782 5.97349 27.1539 8.01246 24.6309C10.7813 21.2047 15.6479 18.4466 19.2481 16.4063L19.4985 16.2643C19.7851 16.1018 20.0799 15.9335 20.3819 15.7611C23.8977 13.7537 28.3921 11.1877 32.2963 10.7318C35.59 10.1361 39.0397 11.659 40.771 14.7695ZM39.2645 18.2369C39.2645 21.3983 36.7017 23.9611 33.5403 23.9611C30.379 23.9611 27.8162 21.3983 27.8162 18.2369C27.8162 15.0755 30.379 12.5127 33.5403 12.5127C36.7017 12.5127 39.2645 15.0755 39.2645 18.2369ZM20.1839 29.6853C20.1839 32.8466 17.6211 35.4094 14.4598 35.4094C11.2984 35.4094 8.73558 32.8466 8.73558 29.6853C8.73558 26.5239 11.2984 23.9611 14.4598 23.9611C17.6211 23.9611 20.1839 26.5239 20.1839 29.6853ZM13.1045 26.7031C13.3714 26.549 13.7128 26.6404 13.8669 26.9074L14.4218 27.8685C14.5759 28.1354 14.9173 28.2269 15.1842 28.0728L16.1453 27.5179C16.4123 27.3638 16.7536 27.4552 16.9077 27.7222L17.3036 28.4079C17.4578 28.6748 17.3663 29.0162 17.0993 29.1703L16.1382 29.7252C15.8713 29.8793 15.7798 30.2207 15.9339 30.4876L16.4888 31.4488C16.643 31.7157 16.5515 32.0571 16.2846 32.2112L15.5989 32.6071C15.3319 32.7612 14.9905 32.6697 14.8364 32.4028L14.2815 31.4417C14.1274 31.1747 13.786 31.0833 13.5191 31.2374L12.558 31.7923C12.291 31.9464 11.9497 31.8549 11.7955 31.588L11.3997 30.9023C11.2455 30.6353 11.337 30.294 11.6039 30.1399L12.5651 29.585C12.832 29.4308 12.9235 29.0895 12.7694 28.8225L12.2145 27.8614C12.0603 27.5945 12.1518 27.2531 12.4188 27.099L13.1045 26.7031Z" fill="url(#paint2_linear)"/>
</g>
<defs>
<radialGradient id="paint0_radial" cx="0" cy="0" r="1" gradientUnits="userSpaceOnUse" gradientTransform="translate(3 2.5) rotate(56.0702) scale(33.1436)">
<stop stop-color="#565ECD"/>
<stop offset="1" stop-color="#0314FF" stop-opacity="0"/>
</radialGradient>
<radialGradient id="paint1_radial" cx="0" cy="0" r="1" gradientUnits="userSpaceOnUse" gradientTransform="translate(3 48) rotate(-33.6901) scale(25.2389)">
<stop stop-color="#F4BF6F"/>
<stop offset="1" stop-color="#F5C571" stop-opacity="0"/>
</radialGradient>
<linearGradient id="paint2_linear" x1="46.5" y1="41" x2="12" y2="20.5" gradientUnits="userSpaceOnUse">
<stop stop-color="#D9405F"/>
<stop offset="1" stop-color="#D93F61" stop-opacity="0"/>
</linearGradient>
<clipPath id="clip0">
<rect width="48" height="48" fill="white"/>
</clipPath>
</defs>
</svg>
