<svg width="48" height="48" viewBox="0 0 48 48" fill="none" xmlns="http://www.w3.org/2000/svg">
<path fill-rule="evenodd" clip-rule="evenodd" d="M2.04167 2.04167C0.478661 3.60468 0.403337 6.01577 0.252689 10.838C0.11841 15.1362 0 20.0471 0 24C0 27.9529 0.11841 32.8638 0.252689 37.162C0.403337 41.9842 0.478661 44.3953 2.04167 45.9583C3.60468 47.5213 6.01577 47.5967 10.838 47.7473C15.1362 47.8816 20.0471 48 24 48C27.9529 48 32.8638 47.8816 37.162 47.7473C41.9842 47.5967 44.3953 47.5213 45.9583 45.9583C47.5213 44.3953 47.5967 41.9842 47.7473 37.162C47.8816 32.8638 48 27.9529 48 24C48 20.0471 47.8816 15.1362 47.7473 10.838C47.5967 6.01577 47.5213 3.60468 45.9583 2.04167C44.3953 0.478661 41.9842 0.403337 37.162 0.252689C32.8638 0.11841 27.9529 0 24 0C20.0471 0 15.1362 0.11841 10.838 0.252689C6.01577 0.403337 3.60468 0.478661 2.04167 2.04167ZM5.30133 5.30133C3.73332 6.86934 3.66331 9.27942 3.52328 14.0996C3.42659 17.4281 3.34884 21.0286 3.34884 24C3.34884 26.9714 3.42659 30.5719 3.52328 33.9004C3.66331 38.7206 3.73332 41.1307 5.30133 42.6987C6.86934 44.2667 9.27942 44.3367 14.0996 44.4767C17.4281 44.5734 21.0286 44.6512 24 44.6512C26.9714 44.6512 30.5719 44.5734 33.9004 44.4767C38.7206 44.3367 41.1307 44.2667 42.6987 42.6987C44.2667 41.1307 44.3367 38.7206 44.4767 33.9004C44.5734 30.5719 44.6512 26.9714 44.6512 24C44.6512 21.0286 44.5734 17.4281 44.4767 14.0996C44.3367 9.27942 44.2667 6.86934 42.6987 5.30133C41.1307 3.73332 38.7206 3.66331 33.9004 3.52328C30.5719 3.42659 26.9714 3.34884 24 3.34884C21.0286 3.34884 17.4281 3.42659 14.0996 3.52328C9.27942 3.66331 6.86934 3.73332 5.30133 5.30133ZM40.771 14.7695C42.9579 18.6987 41.575 23.6733 37.6822 25.8807C34.7597 27.5378 31.2536 27.1642 28.7619 25.2127L22.3128 28.8695C22.6678 32.0326 21.1599 35.2492 18.2375 36.9062C14.3446 39.1136 9.41598 37.7178 7.22902 33.7886C5.55341 30.7781 5.97345 27.1539 8.01242 24.6309C10.7813 21.2047 15.6479 18.4466 19.248 16.4063L19.4984 16.2643C19.785 16.1018 20.0799 15.9335 20.3819 15.761C23.8977 13.7537 28.392 11.1877 32.2963 10.7318C35.59 10.1361 39.0396 11.659 40.771 14.7695ZM39.2645 18.2369C39.2645 21.3983 36.7017 23.9611 33.5403 23.9611C30.3789 23.9611 27.8161 21.3983 27.8161 18.2369C27.8161 15.0755 30.3789 12.5127 33.5403 12.5127C36.7017 12.5127 39.2645 15.0755 39.2645 18.2369ZM20.1839 29.6852C20.1839 32.8466 17.6211 35.4094 14.4597 35.4094C11.2983 35.4094 8.73554 32.8466 8.73554 29.6852C8.73554 26.5239 11.2983 23.9611 14.4597 23.9611C17.6211 23.9611 20.1839 26.5239 20.1839 29.6852ZM13.1044 26.7031C13.3714 26.549 13.7127 26.6404 13.8668 26.9074L14.4217 27.8685C14.5759 28.1354 14.9172 28.2269 15.1842 28.0728L16.1453 27.5179C16.4122 27.3638 16.7536 27.4552 16.9077 27.7222L17.3036 28.4079C17.4577 28.6748 17.3663 29.0162 17.0993 29.1703L16.1382 29.7252C15.8712 29.8793 15.7798 30.2207 15.9339 30.4876L16.4888 31.4487C16.6429 31.7157 16.5515 32.057 16.2845 32.2112L15.5988 32.6071C15.3319 32.7612 14.9905 32.6697 14.8364 32.4028L14.2815 31.4417C14.1274 31.1747 13.786 31.0832 13.519 31.2374L12.5579 31.7923C12.291 31.9464 11.9496 31.8549 11.7955 31.588L11.3996 30.9023C11.2455 30.6353 11.337 30.294 11.6039 30.1398L12.565 29.5849C12.832 29.4308 12.9234 29.0895 12.7693 28.8225L12.2144 27.8614C12.0603 27.5945 12.1518 27.2531 12.4187 27.099L13.1044 26.7031Z" fill="#A03794"/>
<path fill-rule="evenodd" clip-rule="evenodd" d="M2.04167 2.04167C0.478661 3.60468 0.403337 6.01577 0.252689 10.838C0.11841 15.1362 0 20.0471 0 24C0 27.9529 0.11841 32.8638 0.252689 37.162C0.403337 41.9842 0.478661 44.3953 2.04167 45.9583C3.60468 47.5213 6.01577 47.5967 10.838 47.7473C15.1362 47.8816 20.0471 48 24 48C27.9529 48 32.8638 47.8816 37.162 47.7473C41.9842 47.5967 44.3953 47.5213 45.9583 45.9583C47.5213 44.3953 47.5967 41.9842 47.7473 37.162C47.8816 32.8638 48 27.9529 48 24C48 20.0471 47.8816 15.1362 47.7473 10.838C47.5967 6.01577 47.5213 3.60468 45.9583 2.04167C44.3953 0.478661 41.9842 0.403337 37.162 0.252689C32.8638 0.11841 27.9529 0 24 0C20.0471 0 15.1362 0.11841 10.838 0.252689C6.01577 0.403337 3.60468 0.478661 2.04167 2.04167ZM5.30133 5.30133C3.73332 6.86934 3.66331 9.27942 3.52328 14.0996C3.42659 17.4281 3.34884 21.0286 3.34884 24C3.34884 26.9714 3.42659 30.5719 3.52328 33.9004C3.66331 38.7206 3.73332 41.1307 5.30133 42.6987C6.86934 44.2667 9.27942 44.3367 14.0996 44.4767C17.4281 44.5734 21.0286 44.6512 24 44.6512C26.9714 44.6512 30.5719 44.5734 33.9004 44.4767C38.7206 44.3367 41.1307 44.2667 42.6987 42.6987C44.2667 41.1307 44.3367 38.7206 44.4767 33.9004C44.5734 30.5719 44.6512 26.9714 44.6512 24C44.6512 21.0286 44.5734 17.4281 44.4767 14.0996C44.3367 9.27942 44.2667 6.86934 42.6987 5.30133C41.1307 3.73332 38.7206 3.66331 33.9004 3.52328C30.5719 3.42659 26.9714 3.34884 24 3.34884C21.0286 3.34884 17.4281 3.42659 14.0996 3.52328C9.27942 3.66331 6.86934 3.73332 5.30133 5.30133ZM40.771 14.7695C42.9579 18.6987 41.575 23.6733 37.6822 25.8807C34.7597 27.5378 31.2536 27.1642 28.7619 25.2127L22.3128 28.8695C22.6678 32.0326 21.1599 35.2492 18.2375 36.9062C14.3446 39.1136 9.41598 37.7178 7.22902 33.7886C5.55341 30.7781 5.97345 27.1539 8.01242 24.6309C10.7813 21.2047 15.6479 18.4466 19.248 16.4063L19.4984 16.2643C19.785 16.1018 20.0799 15.9335 20.3819 15.761C23.8977 13.7537 28.392 11.1877 32.2963 10.7318C35.59 10.1361 39.0396 11.659 40.771 14.7695ZM39.2645 18.2369C39.2645 21.3983 36.7017 23.9611 33.5403 23.9611C30.3789 23.9611 27.8161 21.3983 27.8161 18.2369C27.8161 15.0755 30.3789 12.5127 33.5403 12.5127C36.7017 12.5127 39.2645 15.0755 39.2645 18.2369ZM20.1839 29.6852C20.1839 32.8466 17.6211 35.4094 14.4597 35.4094C11.2983 35.4094 8.73554 32.8466 8.73554 29.6852C8.73554 26.5239 11.2983 23.9611 14.4597 23.9611C17.6211 23.9611 20.1839 26.5239 20.1839 29.6852ZM13.1044 26.7031C13.3714 26.549 13.7127 26.6404 13.8668 26.9074L14.4217 27.8685C14.5759 28.1354 14.9172 28.2269 15.1842 28.0728L16.1453 27.5179C16.4122 27.3638 16.7536 27.4552 16.9077 27.7222L17.3036 28.4079C17.4577 28.6748 17.3663 29.0162 17.0993 29.1703L16.1382 29.7252C15.8712 29.8793 15.7798 30.2207 15.9339 30.4876L16.4888 31.4487C16.6429 31.7157 16.5515 32.057 16.2845 32.2112L15.5988 32.6071C15.3319 32.7612 14.9905 32.6697 14.8364 32.4028L14.2815 31.4417C14.1274 31.1747 13.786 31.0832 13.519 31.2374L12.5579 31.7923C12.291 31.9464 11.9496 31.8549 11.7955 31.588L11.3996 30.9023C11.2455 30.6353 11.337 30.294 11.6039 30.1398L12.565 29.5849C12.832 29.4308 12.9234 29.0895 12.7693 28.8225L12.2144 27.8614C12.0603 27.5945 12.1518 27.2531 12.4187 27.099L13.1044 26.7031Z" fill="url(#paint0_radial)"/>
<path fill-rule="evenodd" clip-rule="evenodd" d="M2.04167 2.04167C0.478661 3.60468 0.403337 6.01577 0.252689 10.838C0.11841 15.1362 0 20.0471 0 24C0 27.9529 0.11841 32.8638 0.252689 37.162C0.403337 41.9842 0.478661 44.3953 2.04167 45.9583C3.60468 47.5213 6.01577 47.5967 10.838 47.7473C15.1362 47.8816 20.0471 48 24 48C27.9529 48 32.8638 47.8816 37.162 47.7473C41.9842 47.5967 44.3953 47.5213 45.9583 45.9583C47.5213 44.3953 47.5967 41.9842 47.7473 37.162C47.8816 32.8638 48 27.9529 48 24C48 20.0471 47.8816 15.1362 47.7473 10.838C47.5967 6.01577 47.5213 3.60468 45.9583 2.04167C44.3953 0.478661 41.9842 0.403337 37.162 0.252689C32.8638 0.11841 27.9529 0 24 0C20.0471 0 15.1362 0.11841 10.838 0.252689C6.01577 0.403337 3.60468 0.478661 2.04167 2.04167ZM5.30133 5.30133C3.73332 6.86934 3.66331 9.27942 3.52328 14.0996C3.42659 17.4281 3.34884 21.0286 3.34884 24C3.34884 26.9714 3.42659 30.5719 3.52328 33.9004C3.66331 38.7206 3.73332 41.1307 5.30133 42.6987C6.86934 44.2667 9.27942 44.3367 14.0996 44.4767C17.4281 44.5734 21.0286 44.6512 24 44.6512C26.9714 44.6512 30.5719 44.5734 33.9004 44.4767C38.7206 44.3367 41.1307 44.2667 42.6987 42.6987C44.2667 41.1307 44.3367 38.7206 44.4767 33.9004C44.5734 30.5719 44.6512 26.9714 44.6512 24C44.6512 21.0286 44.5734 17.4281 44.4767 14.0996C44.3367 9.27942 44.2667 6.86934 42.6987 5.30133C41.1307 3.73332 38.7206 3.66331 33.9004 3.52328C30.5719 3.42659 26.9714 3.34884 24 3.34884C21.0286 3.34884 17.4281 3.42659 14.0996 3.52328C9.27942 3.66331 6.86934 3.73332 5.30133 5.30133ZM40.771 14.7695C42.9579 18.6987 41.575 23.6733 37.6822 25.8807C34.7597 27.5378 31.2536 27.1642 28.7619 25.2127L22.3128 28.8695C22.6678 32.0326 21.1599 35.2492 18.2375 36.9062C14.3446 39.1136 9.41598 37.7178 7.22902 33.7886C5.55341 30.7781 5.97345 27.1539 8.01242 24.6309C10.7813 21.2047 15.6479 18.4466 19.248 16.4063L19.4984 16.2643C19.785 16.1018 20.0799 15.9335 20.3819 15.761C23.8977 13.7537 28.392 11.1877 32.2963 10.7318C35.59 10.1361 39.0396 11.659 40.771 14.7695ZM39.2645 18.2369C39.2645 21.3983 36.7017 23.9611 33.5403 23.9611C30.3789 23.9611 27.8161 21.3983 27.8161 18.2369C27.8161 15.0755 30.3789 12.5127 33.5403 12.5127C36.7017 12.5127 39.2645 15.0755 39.2645 18.2369ZM20.1839 29.6852C20.1839 32.8466 17.6211 35.4094 14.4597 35.4094C11.2983 35.4094 8.73554 32.8466 8.73554 29.6852C8.73554 26.5239 11.2983 23.9611 14.4597 23.9611C17.6211 23.9611 20.1839 26.5239 20.1839 29.6852ZM13.1044 26.7031C13.3714 26.549 13.7127 26.6404 13.8668 26.9074L14.4217 27.8685C14.5759 28.1354 14.9172 28.2269 15.1842 28.0728L16.1453 27.5179C16.4122 27.3638 16.7536 27.4552 16.9077 27.7222L17.3036 28.4079C17.4577 28.6748 17.3663 29.0162 17.0993 29.1703L16.1382 29.7252C15.8712 29.8793 15.7798 30.2207 15.9339 30.4876L16.4888 31.4487C16.6429 31.7157 16.5515 32.057 16.2845 32.2112L15.5988 32.6071C15.3319 32.7612 14.9905 32.6697 14.8364 32.4028L14.2815 31.4417C14.1274 31.1747 13.786 31.0832 13.519 31.2374L12.5579 31.7923C12.291 31.9464 11.9496 31.8549 11.7955 31.588L11.3996 30.9023C11.2455 30.6353 11.337 30.294 11.6039 30.1398L12.565 29.5849C12.832 29.4308 12.9234 29.0895 12.7693 28.8225L12.2144 27.8614C12.0603 27.5945 12.1518 27.2531 12.4187 27.099L13.1044 26.7031Z" fill="url(#paint1_radial)"/>
<path fill-rule="evenodd" clip-rule="evenodd" d="M2.04167 2.04167C0.478661 3.60468 0.403337 6.01577 0.252689 10.838C0.11841 15.1362 0 20.0471 0 24C0 27.9529 0.11841 32.8638 0.252689 37.162C0.403337 41.9842 0.478661 44.3953 2.04167 45.9583C3.60468 47.5213 6.01577 47.5967 10.838 47.7473C15.1362 47.8816 20.0471 48 24 48C27.9529 48 32.8638 47.8816 37.162 47.7473C41.9842 47.5967 44.3953 47.5213 45.9583 45.9583C47.5213 44.3953 47.5967 41.9842 47.7473 37.162C47.8816 32.8638 48 27.9529 48 24C48 20.0471 47.8816 15.1362 47.7473 10.838C47.5967 6.01577 47.5213 3.60468 45.9583 2.04167C44.3953 0.478661 41.9842 0.403337 37.162 0.252689C32.8638 0.11841 27.9529 0 24 0C20.0471 0 15.1362 0.11841 10.838 0.252689C6.01577 0.403337 3.60468 0.478661 2.04167 2.04167ZM5.30133 5.30133C3.73332 6.86934 3.66331 9.27942 3.52328 14.0996C3.42659 17.4281 3.34884 21.0286 3.34884 24C3.34884 26.9714 3.42659 30.5719 3.52328 33.9004C3.66331 38.7206 3.73332 41.1307 5.30133 42.6987C6.86934 44.2667 9.27942 44.3367 14.0996 44.4767C17.4281 44.5734 21.0286 44.6512 24 44.6512C26.9714 44.6512 30.5719 44.5734 33.9004 44.4767C38.7206 44.3367 41.1307 44.2667 42.6987 42.6987C44.2667 41.1307 44.3367 38.7206 44.4767 33.9004C44.5734 30.5719 44.6512 26.9714 44.6512 24C44.6512 21.0286 44.5734 17.4281 44.4767 14.0996C44.3367 9.27942 44.2667 6.86934 42.6987 5.30133C41.1307 3.73332 38.7206 3.66331 33.9004 3.52328C30.5719 3.42659 26.9714 3.34884 24 3.34884C21.0286 3.34884 17.4281 3.42659 14.0996 3.52328C9.27942 3.66331 6.86934 3.73332 5.30133 5.30133ZM40.771 14.7695C42.9579 18.6987 41.575 23.6733 37.6822 25.8807C34.7597 27.5378 31.2536 27.1642 28.7619 25.2127L22.3128 28.8695C22.6678 32.0326 21.1599 35.2492 18.2375 36.9062C14.3446 39.1136 9.41598 37.7178 7.22902 33.7886C5.55341 30.7781 5.97345 27.1539 8.01242 24.6309C10.7813 21.2047 15.6479 18.4466 19.248 16.4063L19.4984 16.2643C19.785 16.1018 20.0799 15.9335 20.3819 15.761C23.8977 13.7537 28.392 11.1877 32.2963 10.7318C35.59 10.1361 39.0396 11.659 40.771 14.7695ZM39.2645 18.2369C39.2645 21.3983 36.7017 23.9611 33.5403 23.9611C30.3789 23.9611 27.8161 21.3983 27.8161 18.2369C27.8161 15.0755 30.3789 12.5127 33.5403 12.5127C36.7017 12.5127 39.2645 15.0755 39.2645 18.2369ZM20.1839 29.6852C20.1839 32.8466 17.6211 35.4094 14.4597 35.4094C11.2983 35.4094 8.73554 32.8466 8.73554 29.6852C8.73554 26.5239 11.2983 23.9611 14.4597 23.9611C17.6211 23.9611 20.1839 26.5239 20.1839 29.6852ZM13.1044 26.7031C13.3714 26.549 13.7127 26.6404 13.8668 26.9074L14.4217 27.8685C14.5759 28.1354 14.9172 28.2269 15.1842 28.0728L16.1453 27.5179C16.4122 27.3638 16.7536 27.4552 16.9077 27.7222L17.3036 28.4079C17.4577 28.6748 17.3663 29.0162 17.0993 29.1703L16.1382 29.7252C15.8712 29.8793 15.7798 30.2207 15.9339 30.4876L16.4888 31.4487C16.6429 31.7157 16.5515 32.057 16.2845 32.2112L15.5988 32.6071C15.3319 32.7612 14.9905 32.6697 14.8364 32.4028L14.2815 31.4417C14.1274 31.1747 13.786 31.0832 13.519 31.2374L12.5579 31.7923C12.291 31.9464 11.9496 31.8549 11.7955 31.588L11.3996 30.9023C11.2455 30.6353 11.337 30.294 11.6039 30.1398L12.565 29.5849C12.832 29.4308 12.9234 29.0895 12.7693 28.8225L12.2144 27.8614C12.0603 27.5945 12.1518 27.2531 12.4187 27.099L13.1044 26.7031Z" fill="url(#paint2_linear)"/>
<defs>
<radialGradient id="paint0_radial" cx="0" cy="0" r="1" gradientUnits="userSpaceOnUse" gradientTransform="translate(3 2.5) rotate(56.0702) scale(33.1436)">
<stop stop-color="#565ECD"/>
<stop offset="1" stop-color="#0314FF" stop-opacity="0"/>
</radialGradient>
<radialGradient id="paint1_radial" cx="0" cy="0" r="1" gradientUnits="userSpaceOnUse" gradientTransform="translate(3 48) rotate(-33.6901) scale(25.2389)">
<stop stop-color="#F4BF6F"/>
<stop offset="1" stop-color="#F5C571" stop-opacity="0"/>
</radialGradient>
<linearGradient id="paint2_linear" x1="46.5" y1="41" x2="12" y2="20.5" gradientUnits="userSpaceOnUse">
<stop stop-color="#D9405F"/>
<stop offset="1" stop-color="#D93F61" stop-opacity="0"/>
</linearGradient>
</defs>
</svg>
